# xmcd
#
# Track frame offsets:
#	150
#	23043
#	40593
#	59643
#	86985
#	99735
#	122459
#	140161
#	164685
#	190332
#	214628
#	238474
#	256554
#	279201
#	293256
#	318625
#
# Disc length: 4429 seconds
#
# Revision: 2
# Processed by: cddbd v1.5PL3 Copyright (c) Steve Scherf et al.
# Submitted via: EasyCDDAExtractor 6.5.2.1
#
DISCID=ea114b10
DTITLE=Various Artist - Erotic Dream
DYEAR=2003
DGENRE=Blues
TTITLE0=ERA - Flowers Of The Sea (erotic edit)
TTITLE1=B-TRIBE - Desesperada (love mucho mix)
TTITLE2=SOUL BALLET - Exotique (new amore mix)
TTITLE3=DAVID LANZ - Cristafan's Dream
TTITLE4=ROY BUCHANAN - My Sonata (orgazm edit)
TTITLE5=J.-P.CATOUL, G.MICAULT - Eljadida (kamasutra version)
TTITLE6=ULYSSES -Aquaria
TTITLE7=O.SEVAG - The Doors Is Open (virtual sex edit)
TTITLE8=JAMES LAST - Der Einsame Hirte
TTITLE9=ZEUS FABER - Land Of The Mermaids
TTITLE10=ENNIO MORRICONE - Le Vent, Le Eri (dream mix)
TTITLE11=B-TRIBE - Overture (Concierto De Aranjuez) (mucho stories)
TTITLE12=ANGELO BADALAMENTI - The Theme From Twin PEAKS "Fire Walk With Me" (d
TTITLE12=ark love)
TTITLE13=GEORGE KATSAROS - Abrazame (sax and sex)
TTITLE14=JAMES LAST - Slavonic Dance No.10
TTITLE15=ENIGMA - Sadeness (new radio edit)
EXTD=
EXTT0=
EXTT1=
EXTT2=
EXTT3=
EXTT4=
EXTT5=
EXTT6=
EXTT7=
EXTT8=
EXTT9=
EXTT10=
EXTT11=
EXTT12=
EXTT13=
EXTT14=
EXTT15=
PLAYORDER=
